<?xml version="1.0" encoding="UTF-8"?>
<svg version="1.1" xmlns="http://www.w3.org/2000/svg" width="346" height="312">
<path d="M0 0 C114.18 0 228.36 0 346 0 C346 102.96 346 205.92 346 312 C231.82 312 117.64 312 0 312 C0 209.04 0 106.08 0 0 Z " fill="#060606" transform="translate(0,0)"/>
<path d="M0 0 C15.30307376 11.97132347 25.65755838 25.5613722 31.25 44.3125 C31.56839844 45.23933594 31.88679687 46.16617188 32.21484375 47.12109375 C36.71683854 61.74739018 35.30764246 78.07124361 30.25 92.3125 C29.899375 93.3334375 29.54875 94.354375 29.1875 95.40625 C22.06275523 114.20765982 8.37896988 130.37218609 -9.75 139.3125 C-31.90129012 149.04986318 -52.71227528 151.31320546 -75.75 143.3125 C-85.47507376 139.50613152 -94.0407281 134.3966958 -101.75 127.3125 C-102.45511719 126.67570313 -103.16023438 126.03890625 -103.88671875 125.3828125 C-111.75790733 117.9164279 -117.31181945 109.15971309 -121.75 99.3125 C-122.12125 98.49910156 -122.4925 97.68570313 -122.875 96.84765625 C-130.7953464 78.41537953 -130.26493752 54.78198596 -122.92041016 36.21533203 C-118.90967326 26.78738302 -113.71888221 18.8631539 -106.75 11.3125 C-106.13769531 10.60867187 -105.52539062 9.90484375 -104.89453125 9.1796875 C-78.05864676 -20.00219116 -31.6432842 -21.80575888 0 0 Z " fill="#FAFAFA" transform="translate(221.75,83.6875)"/>
<path d="M0 0 C1.00804687 -0.03673828 2.01609375 -0.07347656 3.0546875 -0.11132812 C10.53475716 -0.15492957 15.25203883 1.59634107 20.875 6.5625 C26.30716237 13.08109484 26.03826862 19.96469173 26.078125 28.0546875 C26.08382507 28.95945831 26.08952515 29.86422913 26.09539795 30.79641724 C26.10481235 32.7042729 26.11136771 34.61214456 26.11523438 36.52001953 C26.1249454 39.4211895 26.15600479 42.32165203 26.1875 45.22265625 C26.19403072 47.08332916 26.19928092 48.9440071 26.203125 50.8046875 C26.2154718 51.66327362 26.2278186 52.52185974 26.24053955 53.40646362 C26.21229914 61.13116407 24.51745692 67.92004308 18.875 73.5625 C12.38588922 78.48589786 6.36138453 78.03729105 -1.5625 77.8125 C-2.77099609 77.79445313 -3.97949219 77.77640625 -5.22460938 77.7578125 C-8.19223184 77.71089357 -11.15819661 77.64525602 -14.125 77.5625 C-14.19445844 67.96594696 -14.24779 58.36948023 -14.28043652 48.77273083 C-14.29610387 44.31674011 -14.31736152 39.86092115 -14.35131836 35.4050293 C-14.38387388 31.1062024 -14.40184495 26.80754088 -14.40963173 22.50860023 C-14.41518211 20.86710315 -14.42602049 19.22561529 -14.44219017 17.58418846 C-14.46391431 15.2879404 -14.4669691 12.99237892 -14.46557617 10.69604492 C-14.47223801 9.38810471 -14.47889984 8.08016449 -14.48576355 6.73258972 C-14.125 3.5625 -14.125 3.5625 -12.74803162 1.64389038 C-9.12045649 -0.77308339 -4.20483356 0.00788406 0 0 Z " fill="#1A1A1A" transform="translate(193.125,111.4375)"/>
<path d="M0 0 C5.94 0 11.88 0 18 0 C18.33773437 2.13339844 18.67546875 4.26679687 19.0234375 6.46484375 C19.35708702 8.56008328 19.69168322 10.65516963 20.02636719 12.75024414 C20.25619569 14.1921444 20.48505949 15.63419881 20.71289062 17.07641602 C22.34350175 27.423991 22.34350175 27.423991 24.47753906 37.67700195 C25.70345906 43.12776308 26.67581389 48.63134268 27.6875 54.125 C27.92533203 55.36121094 28.16316406 56.59742188 28.40820312 57.87109375 C30.53662051 69.4931265 30.53662051 69.4931265 29 75 C27 77 27 77 24.0625 77.4375 C21 77 21 77 19.43408203 75.10742188 C17.44473421 70.79682959 16.76565208 66.50735238 15.9921875 61.84375 C15.82123566 60.86386108 15.65028381 59.88397217 15.47415161 58.87438965 C14.9314283 55.75117353 14.40293589 52.62574623 13.875 49.5 C13.51267662 47.39697016 13.14940557 45.29410336 12.78515625 43.19140625 C11.98243271 38.55443272 11.18897185 33.91597466 10.40377808 29.27600098 C9.97209758 26.8427207 9.4927715 24.42158174 9 22 C8.83395264 23.01199463 8.66790527 24.02398926 8.49682617 25.06665039 C7.86760229 28.89716158 7.23492715 32.72709666 6.60131836 36.55688477 C6.32989961 38.20028927 6.05936127 39.84383946 5.78979492 41.48754883 C4.8859709 46.99633099 3.9576778 52.50031958 3 58 C2.87304749 58.73579285 2.74609497 59.47158569 2.61529541 60.22967529 C2.25256201 62.30025651 1.87356024 64.36710317 1.48828125 66.43359375 C1.27341064 67.60849365 1.05854004 68.78339355 0.8371582 69.99389648 C-0.00854476 73.0306829 -0.78935236 74.76909287 -3 77 C-6.0625 77.375 -6.0625 77.375 -9 77 C-11 75 -11 75 -11.25436401 73.01077271 C-11.18894777 66.47528881 -10.43574198 60.23899715 -9.3203125 53.8046875 C-9.14748749 52.77240021 -8.97466248 51.74011292 -8.79660034 50.67654419 C-8.43219289 48.50946434 -8.06390202 46.34303424 -7.69189453 44.17724609 C-7.12563592 40.87870436 -6.57157031 37.57829199 -6.01953125 34.27734375 C-5.66216864 32.16133825 -5.30411902 30.04544864 -4.9453125 27.9296875 C-4.78064484 26.95240692 -4.61597717 25.97512634 -4.44631958 24.9682312 C-3.51556237 19.56967538 -2.37438497 14.30236534 -1 9 C-0.74991898 7.33908458 -0.53177851 5.67230412 -0.375 4 C-0.25125 2.68 -0.1275 1.36 0 0 Z " fill="#1A1A1A" transform="translate(142,112)"/>
<path d="M0 0 C2.49554624 1.93130286 4.85861091 3.93913811 7.19921875 6.0546875 C7.8953125 6.66957031 8.59140625 7.28445312 9.30859375 7.91796875 C22.59208326 20.35193277 30.56020867 37.86767165 31.51953125 55.984375 C32.18592026 76.82818056 27.08815256 96.04354604 12.63671875 111.6796875 C10.85738409 113.51062347 9.0381783 115.28199677 7.19921875 117.0546875 C6.56757813 117.71726563 5.9359375 118.37984375 5.28515625 119.0625 C-2.69688324 126.90388681 -15.04570749 132.30915044 -25.80078125 135.0546875 C-26.50332031 135.25707031 -27.20585937 135.45945313 -27.9296875 135.66796875 C-47.45035383 140.52336291 -66.94709476 135.89978669 -84.05419922 126.11035156 C-101.91340083 115.31594455 -112.92547113 97.94708084 -117.84375 78.0390625 C-121.98141912 58.84649401 -119.51029321 38.86728825 -108.9140625 22.0625 C-106.96868108 19.30303952 -104.93468867 16.67044498 -102.80078125 14.0546875 C-101.85912109 12.86746094 -101.85912109 12.86746094 -100.8984375 11.65625 C-75.71170948 -18.52661835 -31.48399652 -21.8675457 0 0 Z M-94.80078125 8.0546875 C-95.4246875 8.58449219 -96.04859375 9.11429688 -96.69140625 9.66015625 C-110.36907802 22.13641091 -116.62140979 41.23385088 -117.9609375 59.203125 C-118.72390802 79.17304891 -110.75537265 97.30877927 -97.9375 112.22265625 C-86.62725228 124.32907047 -68.60575008 134.24997244 -51.77954102 135.16455078 C-39.11401734 135.57507404 -39.11401734 135.57507404 -26.80078125 133.0546875 C-25.69089844 132.68988281 -24.58101563 132.32507813 -23.4375 131.94921875 C-4.3771171 125.40790466 11.57036889 114.29882408 21.19921875 96.0546875 C29.63457407 78.0773825 32.52762368 58.80240541 26.5234375 39.546875 C22.60710668 29.21885213 17.64783765 20.27830721 10.19921875 12.0546875 C9.56113281 11.34699219 8.92304688 10.63929687 8.265625 9.91015625 C-3.62995011 -2.60772259 -19.48161724 -10.63223037 -36.83984375 -11.28125 C-59.73301527 -11.59736336 -77.19903717 -7.51848679 -94.80078125 8.0546875 Z " fill="#333333" transform="translate(218.80078125,88.9453125)"/>
<path d="M0 0 C3.96 0 7.92 0 12 0 C16.50114309 4.50114309 16.50114309 4.50114309 16.51757812 8.52148438 C16.53018677 9.40920532 16.54279541 10.29692627 16.55578613 11.21154785 C16.54768921 12.16267456 16.53959229 13.11380127 16.53125 14.09375 C16.5350769 15.07742554 16.53890381 16.06110107 16.54284668 17.07458496 C16.54556627 19.15243555 16.53820182 21.23032035 16.52148438 23.30810547 C16.50007584 26.48873211 16.52128488 29.66709987 16.546875 32.84765625 C16.54423173 34.86719249 16.53910678 36.88672732 16.53125 38.90625 C16.53934692 39.85737671 16.54744385 40.80850342 16.55578613 41.78845215 C16.54317749 42.6761731 16.53056885 43.56389404 16.51757812 44.47851562 C16.51280457 45.64622498 16.51280457 45.64622498 16.50793457 46.83752441 C16 49 16 49 12 53 C8.04 53 4.08 53 0 53 C0 35.51 0 18.02 0 0 Z " fill="#FCFCFC" transform="translate(191,124)"/>
<path d="M0 0 C13.47752869 1.24373167 26.19066928 9.13387416 36 18 C36.69609375 18.61488281 37.3921875 19.22976562 38.109375 19.86328125 C51.39286451 32.29724527 59.36098992 49.81298415 60.3203125 67.9296875 C60.98854435 88.83113472 55.85449371 108.01299993 41.375 123.6875 C37.43770201 127.70210819 33.46583732 131.57935865 29 135 C28.34 135 27.68 135 27 135 C28.38508444 131.77513169 29.90592505 130.00617601 32.625 127.8125 C45.31882181 116.93208131 51.73907326 104.08156222 56 88 C56.1750708 87.37536865 56.3501416 86.7507373 56.53051758 86.10717773 C60.52296648 68.18787119 55.14340397 49.35051154 46 34 C43.53644203 30.4598478 40.88899427 27.19976258 38 24 C37.43539062 23.36578125 36.87078125 22.7315625 36.2890625 22.078125 C26.10081765 11.26806239 12.58470545 4.51460439 -2 2 C-1.34 1.34 -0.68 0.68 0 0 Z " fill="#2A2A2A" transform="translate(190,77)"/>
<path d="M0 0 C0 0.33 0 0.66 0 1 C-0.76965088 1.0093457 -1.53930176 1.01869141 -2.33227539 1.02832031 C-29.59365141 1.44411999 -50.05574162 5.09129569 -70.125 25 C-71.08872103 25.9948088 -72.04935213 26.992691 -73 28 C-73.66 27.67 -74.32 27.34 -75 27 C-57.48018315 5.88970217 -27.65106479 -9.08379264 0 0 Z " fill="#333333" transform="translate(190,77)"/>
<path d="M0 0 C2.6985972 0.94450902 3.8982611 1.51454268 5.5 3.875 C5.92822025 6.72980169 5.90659584 8.21992892 4.375 10.6875 C1.59996189 12.44502414 -0.28929745 12.34322746 -3.5 11.875 C-5.4375 10.1875 -5.4375 10.1875 -6.5 7.875 C-6.36008938 5.00683219 -5.83903136 3.38354704 -4.25 1 C-2.5 -0.125 -2.5 -0.125 0 0 Z " fill="#242424" transform="translate(151.5,177.125)"/>
<path d="M0 0 C1.875 1.1875 1.875 1.1875 3 3 C3.42822025 5.85480169 3.40659584 7.34492892 1.875 9.8125 C-0.87155972 11.55198782 -2.81846974 11.39769128 -6 11 C-7.875 9.8125 -7.875 9.8125 -9 8 C-9.42822025 5.14519831 -9.40659584 3.65507108 -7.875 1.1875 C-5.12844028 -0.55198782 -3.18153026 -0.39769128 0 0 Z " fill="#222222" transform="translate(202,145)"/>
<path d="M0 0 C0.77730469 -0.01224609 1.55460937 -0.02449219 2.35546875 -0.03710938 C7.33200237 -0.04965526 11.406485 0.59578761 16.125 2.1875 C16.125 2.5175 16.125 2.8475 16.125 3.1875 C5.895 3.1875 -4.335 3.1875 -14.875 3.1875 C-14.545 2.5275 -14.215 1.8675 -13.875 1.1875 C-9.37170837 -0.18801904 -4.66561216 0.00383055 0 0 Z " fill="#4E4E4E" transform="translate(173.875,74.8125)"/>
<path d="M0 0 C0.99 0.33 1.98 0.66 3 1 C2.54109375 1.68964844 2.0821875 2.37929687 1.609375 3.08984375 C-4.77037491 12.86051116 -8.45534051 21.60686548 -11 33 C-13 30 -13 30 -12.4375 26.0625 C-9.98685459 16.46283805 -5.85279237 7.96462466 0 0 Z " fill="#353535" transform="translate(114,105)"/>
<path d="M0 0 C0.66 0 1.32 0 2 0 C6.94976196 6.23541441 12.52416719 14.01314008 14 22 C13.0859375 24.28125 13.0859375 24.28125 12 26 C11.79246094 25.33355469 11.58492187 24.66710937 11.37109375 23.98046875 C9.19129452 17.45931206 6.38385126 12.07416489 2.48828125 6.41015625 C1.11991137 4.19418717 0.44231758 2.54185169 0 0 Z " fill="#353535" transform="translate(232,103)"/>
<path d="M0 0 C0.99 0.33 1.98 0.66 3 1 C-1.0042316 4.7280777 -5.42605834 6.69456632 -10.37890625 8.8515625 C-12.95384198 9.93365323 -12.95384198 9.93365323 -15.13671875 11.171875 C-17.91980141 12.40880063 -20.10655595 11.65760092 -23 11 C-18.67130556 8.69209914 -14.06630464 7.03669914 -9.48828125 5.29882812 C-6.62739941 4.18245607 -4.16311402 3.12540786 -1.71875 1.24609375 C-1.1515625 0.83488281 -0.584375 0.42367187 0 0 Z " fill="#3B3B3B" transform="translate(215,211)"/>
<path d="M0 0 C3.07072979 1.20252356 6.04790115 2.53140537 9 4 C8.67 4.66 8.34 5.32 8 6 C5.86171604 5.28723868 3.72354654 4.5741591 1.5859375 3.859375 C-0.0942751 3.30099619 -1.77648115 2.74856801 -3.4609375 2.203125 C-4.23695313 1.95046875 -5.01296875 1.6978125 -5.8125 1.4375 C-6.52019531 1.20933594 -7.22789062 0.98117188 -7.95703125 0.74609375 C-10.06519278 -0.02380845 -12.0131411 -0.95968961 -14 -2 C-9.88137473 -4.05931264 -4.21048043 -1.27496843 0 0 Z " fill="#323232" transform="translate(202,80)"/>
<path d="M0 0 C0.99 0.33 1.98 0.66 3 1 C1.0884175 2.79736845 -0.82886184 4.58789474 -2.75 6.375 C-3.55824219 7.13683594 -3.55824219 7.13683594 -4.3828125 7.9140625 C-7.09097827 10.4240698 -9.55080159 12.61027443 -13 14 C-5.50807899 3.18748397 -5.50807899 3.18748397 0 0 Z " fill="#262626" transform="translate(128,91)"/>
<path d="M0 0 C-4.9476205 2.88611196 -10.33165837 4 -16 4 C-16 3.34 -16 2.68 -16 2 C-14.27507022 1.46530198 -12.544802 0.94780825 -10.8125 0.4375 C-9.36810547 0.00244141 -9.36810547 0.00244141 -7.89453125 -0.44140625 C-4.87247412 -1.02461026 -2.94070045 -0.81178385 0 0 Z " fill="#3A3A3A" transform="translate(162,78)"/>
<path d="M0 0 C0.99 0 1.98 0 3 0 C1.68938409 4.23429756 0.05643741 8.07407404 -2 12 C-2.66 11.34 -3.32 10.68 -4 10 C-2.68 6.7 -1.36 3.4 0 0 Z " fill="#3F3F3F" transform="translate(243,175)"/>
<path d="M0 0 C0.99 0.33 1.98 0.66 3 1 C1.02 3.97 -0.96 6.94 -3 10 C-3.66 9.34 -4.32 8.68 -5 8 C-3.35 5.36 -1.7 2.72 0 0 Z " fill="#383838" transform="translate(114,105)"/>
<path d="M0 0 C0.33 0.99 0.66 1.98 1 3 C-0.9375 6.1875 -0.9375 6.1875 -3 9 C-3.99 8.67 -4.98 8.34 -6 8 C-4.02 5.36 -2.04 2.72 0 0 Z " fill="#323232" transform="translate(239,186)"/>
<path d="M0 0 C2.31 0.33 4.62 0.66 7 1 C7 1.99 7 2.98 7 4 C4.36 3.34 1.72 2.68 -1 2 C-0.67 1.34 -0.34 0.68 0 0 Z " fill="#404040" transform="translate(147,219)"/>
<path d="M0 0 C0.99 0.33 1.98 0.66 3 1 C2.34 3.97 1.68 6.94 1 10 C-1.56687367 6.1496895 -0.83288724 4.41430237 0 0 Z " fill="#505050" transform="translate(102,128)"/>
</svg>
