<?xml version="1.0" encoding="UTF-8"?>
<svg version="1.1" xmlns="http://www.w3.org/2000/svg" width="186" height="190">
<path d="M0 0 C61.38 0 122.76 0 186 0 C186 62.7 186 125.4 186 190 C124.62 190 63.24 190 0 190 C0 127.3 0 64.6 0 0 Z " fill="#F9F9F9" transform="translate(0,0)"/>
<path d="M0 0 C61.38 0 122.76 0 186 0 C186 62.7 186 125.4 186 190 C124.62 190 63.24 190 0 190 C0 127.3 0 64.6 0 0 Z M66 17 C65.01773438 17.32871094 64.03546875 17.65742188 63.0234375 17.99609375 C54.80535101 21.06460408 47.93967466 25.7518139 41 31 C40.25878906 31.55429687 39.51757812 32.10859375 38.75390625 32.6796875 C24.46286914 44.23903743 14.75358072 63.15155533 11 81 C9.93559471 95.76781701 10.2485208 111.49704159 16.98828125 124.9765625 C18 127 18 127 18.79296875 129.0859375 C22.48978521 138.7011315 29.68776344 146.90899353 37 154 C37.69738281 154.71800781 38.39476563 155.43601563 39.11328125 156.17578125 C53.01680047 169.68417381 73.02681988 176.35833054 92.25 176.5625 C100.85674347 176.41396199 108.84866128 174.67378764 117 172 C117.95302002 171.69449219 117.95302002 171.69449219 118.92529297 171.3828125 C138.81200274 164.80969955 153.90267028 151.20934937 164 133 C164.72462481 131.0202618 165.41313068 129.0248528 166 127 C166.66 127 167.32 127 168 127 C175.28064637 107.3422548 176.47605972 82.5443849 168.13818359 62.97753906 C164.44422597 54.98260843 159.85993431 47.59406478 154 41 C153.45472656 40.36191406 152.90945312 39.72382812 152.34765625 39.06640625 C143.81240958 29.78409203 132.04672431 21.76328735 120 18 C119.20980469 17.71769531 118.41960937 17.43539063 117.60546875 17.14453125 C102.1920308 11.69998352 81.46068732 11.52895449 66 17 Z " fill="#0E0E0E" transform="translate(0,0)"/>
<path d="M0 0 C0.86109375 -0.00386719 1.7221875 -0.00773437 2.609375 -0.01171875 C3.5065625 -0.00011719 4.40375 0.01148438 5.328125 0.0234375 C6.65070313 0.00603516 6.65070313 0.00603516 8 -0.01171875 C15.53905107 0.02193773 21.00793137 1.62278315 26.890625 6.5859375 C27.54675781 7.11574219 28.20289063 7.64554688 28.87890625 8.19140625 C33.1354997 13.7200851 32.90680366 21.32407716 32.94921875 28.015625 C32.96276146 29.36142136 32.96276146 29.36142136 32.97657776 30.73440552 C32.99100603 32.62189434 32.99994839 34.50943234 33.00366211 36.39697266 C33.01556499 39.25900727 33.06482845 42.11888733 33.11523438 44.98046875 C33.28683529 64.30313283 33.28683529 64.30313283 26.06396484 72.01513672 C21.46237294 76.12624043 17.8261981 77.6560709 11.71875 77.59375 C10.60371094 77.58730469 9.48867187 77.58085937 8.33984375 77.57421875 C7.18097656 77.55746094 6.02210937 77.54070312 4.828125 77.5234375 C3.65378906 77.51441406 2.47945312 77.50539063 1.26953125 77.49609375 C-1.62781036 77.47253813 -4.52473941 77.43964402 -7.421875 77.3984375 C-7.49133344 67.80188446 -7.544665 58.20541773 -7.57731152 48.60866833 C-7.59297887 44.15267761 -7.61423652 39.69685865 -7.64819336 35.2409668 C-7.68074888 30.9421399 -7.69871995 26.64347838 -7.70650673 22.34453773 C-7.71205711 20.70304065 -7.72289549 19.06155279 -7.73906517 17.42012596 C-7.76078931 15.1238779 -7.7638441 12.82831642 -7.76245117 10.53198242 C-7.76911301 9.22404221 -7.77577484 7.91610199 -7.78263855 6.56852722 C-7.421875 3.3984375 -7.421875 3.3984375 -6.02967834 1.47685242 C-3.92014307 0.06190679 -2.53095918 0.01101329 0 0 Z " fill="#1D1D1D" transform="translate(104.421875,55.6015625)"/>
<path d="M0 0 C5.94 0 11.88 0 18 0 C18.45890625 2.86042969 18.9178125 5.72085938 19.390625 8.66796875 C19.85003254 11.51810124 20.3104691 14.36806578 20.77099609 17.21801758 C21.08423943 19.15990276 21.39645641 21.10195384 21.70751953 23.04418945 C22.16151003 25.87758971 22.61877346 28.71043282 23.078125 31.54296875 C23.23108032 32.48768036 23.38403564 33.43239197 23.54162598 34.4057312 C24.33148165 39.20660147 25.17701201 43.98831264 26.12695312 48.76025391 C26.31183289 49.69154617 26.49671265 50.62283844 26.68719482 51.58235168 C27.03861479 53.32823076 27.39830848 55.07247621 27.76837158 56.8144989 C28.89801601 62.40460145 29.94274077 68.31904284 29 74 C27.17897082 76.35640164 26.4868813 76.9269678 23.5 77.375 C20.49411828 76.92411774 19.85677355 76.35118451 18 74 C17.33984375 71.72607422 17.33984375 71.72607422 16.9375 69.0546875 C16.78192627 68.06823242 16.62635254 67.08177734 16.46606445 66.06542969 C16.31226318 65.01258789 16.15846191 63.95974609 16 62.875 C15.66101686 60.68997048 15.32116835 58.50507504 14.98046875 56.3203125 C14.73369385 54.70624512 14.73369385 54.70624512 14.48193359 53.05957031 C13.83331183 48.94177499 13.07548753 44.84777334 12.3125 40.75 C11.11611833 34.1906904 10.37199742 27.65747102 10 21 C9.34 21 8.68 21 8 21 C7.88269531 22.17304687 7.76539062 23.34609375 7.64453125 24.5546875 C6.95172977 30.76442128 5.99087265 36.92999864 5.00805664 43.09960938 C4.79614132 44.4385656 4.58774549 45.77808409 4.38305664 47.11816406 C2.8786977 56.96619954 0.74439656 66.42508626 -2 76 C-5.375 76.625 -5.375 76.625 -9 77 C-11 75 -11 75 -11.22167969 73.12597656 C-11.10678245 67.96911805 -10.83479914 62.87566162 -10.25 57.75 C-10.16274658 56.97970459 -10.07549316 56.20940918 -9.9855957 55.41577148 C-8.95412774 46.87727111 -7.27694674 38.4797235 -5.59716797 30.04980469 C-4.43310873 24.10482183 -3.34717824 18.14511919 -2.25 12.1875 C-1.81773685 9.84765098 -1.38544763 7.50780678 -0.953125 5.16796875 C-0.63859375 3.46253906 -0.3240625 1.75710937 0 0 Z " fill="#1F1F1F" transform="translate(60,56)"/>
<path d="M0 0 C1.22222334 1.00416147 2.42988177 2.0262266 3.625 3.0625 C4.42164063 3.70574219 5.21828125 4.34898438 6.0390625 5.01171875 C17.73533331 14.85284086 27.2075964 29.76161078 29.625 45.0625 C29.95374287 49.56532552 30.00603599 54.04878814 30 58.5625 C29.99838867 59.80612305 29.99677734 61.04974609 29.99511719 62.33105469 C29.86901795 71.81816756 28.89133435 80.13147392 25.625 89.0625 C25.35945312 89.80242187 25.09390625 90.54234375 24.8203125 91.3046875 C16.0630752 111.40463215 -1.68886969 124.73535059 -21.4375 132.8125 C-39.86029505 139.14065521 -60.51151785 137.48823159 -77.93188477 129.12036133 C-86.67179272 124.65554583 -93.60337985 119.11581955 -100.375 112.0625 C-100.96410156 111.48113281 -101.55320312 110.89976562 -102.16015625 110.30078125 C-116.80264462 94.79926689 -120.99518454 73.68719716 -120.46826172 53.13720703 C-120.27973586 48.94324692 -119.54300275 45.08338303 -118.375 41.0625 C-118.13007812 40.13566406 -117.88515625 39.20882812 -117.6328125 38.25390625 C-113.91382482 25.59947471 -106.60817875 15.32757229 -97.375 6.0625 C-96.70082031 5.36511719 -96.02664062 4.66773437 -95.33203125 3.94921875 C-86.98371398 -4.1171666 -75.6172014 -10.1110108 -64.375 -12.9375 C-63.68277344 -13.13988281 -62.99054688 -13.34226562 -62.27734375 -13.55078125 C-40.64396784 -19.00550897 -17.81607742 -12.86915854 0 0 Z M-103.375 15.0625 C-116.29492279 32.37740507 -118.93391797 51.96400145 -117.375 73.0625 C-114.64131476 91.43370271 -104.31798488 108.38635924 -89.58227539 119.50878906 C-76.31011851 129.0581982 -62.72588917 133.65717623 -46.375 133.625 C-45.09713623 133.62258301 -43.81927246 133.62016602 -42.50268555 133.61767578 C-28.02392922 133.33788422 -15.18160913 129.72605278 -3.375 121.0625 C-2.47523438 120.40507812 -1.57546875 119.74765625 -0.6484375 119.0703125 C14.19001975 107.58379325 23.97281829 92.26444174 27.01953125 73.65234375 C28.3919872 62.39820497 29.81140577 46.43531154 24.625 36.0625 C23.965 36.0625 23.305 36.0625 22.625 36.0625 C22.439375 34.804375 22.25375 33.54625 22.0625 32.25 C18.77137062 17.66846846 5.77311954 5.74635157 -6.375 -1.9375 C-39.2019631 -21.77436484 -78.71927915 -13.86277626 -103.375 15.0625 Z " fill="#424242" transform="translate(137.375,33.9375)"/>
<path d="M0 0 C11 0 11 0 13.625 1.875 C15.56574756 4.87433714 16.13201784 6.57434589 16.19287109 10.11083984 C16.21696548 11.3825856 16.21696548 11.3825856 16.24154663 12.68002319 C16.28597538 16.55425224 16.32705044 20.42831029 16.35009766 24.30273438 C16.36667113 26.3474464 16.39397938 28.39210016 16.43212891 30.43652344 C16.48682435 33.38246755 16.50875886 36.32705443 16.5234375 39.2734375 C16.54610687 40.18709076 16.56877625 41.10074402 16.59213257 42.04208374 C16.57876583 46.04799706 16.5061624 48.28462202 14.15478516 51.60791016 C11 53 11 53 0 53 C0 35.51 0 18.02 0 0 Z " fill="#F1F1F1" transform="translate(109,68)"/>
<path d="M0 0 C0.66 0 1.32 0 2 0 C2.10546143 0.69859131 2.21092285 1.39718262 2.31958008 2.11694336 C2.81507992 5.39079119 3.31327723 8.66421776 3.8125 11.9375 C3.99264648 13.11924805 4.17279297 14.30099609 4.35839844 15.51855469 C5.59805387 23.57741202 6.96028047 31.59977184 8.484375 39.609375 C9.88465169 48.81725505 9.88465169 48.81725505 7 53 C4.77872042 55.14468373 3.50756841 55.9257217 0.4375 56.375 C-2 56 -2 56 -3.75 54.875 C-5.43985241 52.34022139 -5.66730609 49.99424517 -6 47 C-6.99 49.64 -7.98 52.28 -9 55 C-10.64087919 51.71824163 -9.11010823 48.37933006 -8.3125 44.9375 C-6.30655236 35.91513848 -4.78292419 26.85490417 -3.39575195 17.71850586 C-2.47971449 11.74578803 -1.38210867 5.88313512 0 0 Z " fill="#EBEBEB" transform="translate(68,77)"/>
<path d="M0 0 C4 1 4 1 5 2 C9.0379986 2.26919991 11.48077851 1.93137318 15 0 C15.05413245 2.89608593 15.09373641 5.79115195 15.125 8.6875 C15.14175781 9.50412109 15.15851563 10.32074219 15.17578125 11.16210938 C15.21103579 15.51604459 15.19981976 19.10031952 13 23 C11 24 11 24 0 24 C0 16.08 0 8.16 0 0 Z " fill="#FCFCFC" transform="translate(109,97)"/>
<path d="M0 0 C1.18340239 0.95887291 2.34993105 1.93889102 3.5 2.9375 C4.2425 3.57300781 4.985 4.20851563 5.75 4.86328125 C7.68277755 6.53768402 9.59829389 8.22798759 11.5 9.9375 C11.005 11.4225 11.005 11.4225 10.5 12.9375 C9.85675781 12.3084375 9.21351563 11.679375 8.55078125 11.03125 C-7.34168614 -4.02238531 -26.08423334 -12.62249628 -48.1640625 -12.27734375 C-68.75184652 -11.53780041 -85.96801381 -2.43990022 -99.98828125 12.28515625 C-100.48714844 12.83042969 -100.98601562 13.37570313 -101.5 13.9375 C-101.83 12.9475 -102.16 11.9575 -102.5 10.9375 C-75.0591718 -18.64621283 -32.99656452 -24.08555492 0 0 Z " fill="#3F3F3F" transform="translate(137.5,34.0625)"/>
<path d="M0 0 C0.33 0.99 0.66 1.98 1 3 C-0.4765625 5.609375 -0.4765625 5.609375 -2.625 8.75 C-13.12219735 24.79791497 -15.41007915 44.80352936 -12.61767578 63.56933594 C-9.82752827 76.86504385 -3.60043408 89.34120462 6 99 C5.01 99.99 5.01 99.99 4 101 C-10.89565245 86.01124972 -17.23954417 66.57024363 -17.18066406 45.77294922 C-17.11193331 39.96283087 -16.62697048 34.60089263 -15 29 C-14.75507813 28.07316406 -14.51015625 27.14632812 -14.2578125 26.19140625 C-11.37720894 16.38970654 -6.22168996 8.06300007 0 0 Z " fill="#676767" transform="translate(34,46)"/>
<path d="M0 0 C9.91780992 9.06771193 17.24323751 23.60318256 18.21850586 37.00195312 C18.3415815 40.5043635 18.37945247 43.99543362 18.375 47.5 C18.37411377 48.74289795 18.37322754 49.9857959 18.37231445 51.26635742 C18.21435058 63.56749342 15.97249436 73.75845831 11 85 C10.01 84.67 9.02 84.34 8 84 C8.28746094 83.31292969 8.57492188 82.62585938 8.87109375 81.91796875 C12.22991051 73.23618288 14.6780695 64.32198738 15 55 C15.03996094 53.95585938 15.07992187 52.91171875 15.12109375 51.8359375 C15.29557572 42.74234765 14.30539238 33.97457262 13 25 C12.34 25 11.68 25 11 25 C10.79246094 24.32195312 10.58492187 23.64390625 10.37109375 22.9453125 C8.23961735 16.50629174 5.57792792 11.53109716 1.390625 6.19140625 C0 4 0 4 0 0 Z " fill="#4F4F4F" transform="translate(149,45)"/>
<path d="M0 0 C0 0.33 0 0.66 0 1 C-0.94359375 1.15855469 -1.8871875 1.31710938 -2.859375 1.48046875 C-21.64009955 4.89343175 -36.01466874 12.80673095 -49 27 C-49.33 26.01 -49.66 25.02 -50 24 C-38.27781049 11.36241174 -18.52358186 -3.99474587 0 0 Z " fill="#333333" transform="translate(85,21)"/>
<path d="M0 0 C2 2 2 2 2.3125 5.5 C2.1578125 7.2325 2.1578125 7.2325 2 9 C-1.23253796 11.15502531 -2.25150923 11.46856135 -6 11 C-7.8125 9.875 -7.8125 9.875 -9 8 C-9.4375 5 -9.4375 5 -9 2 C-6.12524616 -1.3006433 -4.03854228 -1.38160657 0 0 Z " fill="#1E1E1E" transform="translate(72,122)"/>
<path d="M0 0 C1 1 1 1 1.1875 4.4375 C1 8 1 8 -1 10 C-4.13704316 10.333728 -6.16554166 10.52849028 -8.875 8.8125 C-10.40659584 6.34492892 -10.42822025 4.85480169 -10 2 C-7.59027568 -2.25245468 -4.23782457 -0.94173879 0 0 Z " fill="#222222" transform="translate(121,90)"/>
<path d="M0 0 C0.33 0.99 0.66 1.98 1 3 C-0.40625 5.43359375 -0.40625 5.43359375 -2.5 8.4375 C-8.11216066 16.88944391 -10.96077415 26.39449216 -14 36 C-14.33 36 -14.66 36 -15 36 C-16.22228038 22.55491583 -7.86880655 10.19758107 0 0 Z " fill="#595959" transform="translate(34,46)"/>
<path d="M0 0 C0.33 0 0.66 0 1 0 C2.50019153 16.171876 1.67164551 29.007969 -5 44 C-5.99 43.67 -6.98 43.34 -8 43 C-7.71125 42.29488281 -7.4225 41.58976562 -7.125 40.86328125 C-1.86077026 27.46508541 -0.86434818 14.2547177 0 0 Z " fill="#6E6E6E" transform="translate(165,86)"/>
<path d="M0 0 C3.81185969 2.17622535 7.18293894 4.65660676 10.625 7.375 C16.10814407 11.54518278 21.60083039 14.49323868 28 17 C28 17.33 28 17.66 28 18 C16.8258424 17.50337077 7.33256316 9.95288846 0 2 C0 1.34 0 0.68 0 0 Z " fill="#353535" transform="translate(39,146)"/>
<path d="M0 0 C3.09708854 2.83844517 4.95207811 5.49698755 6.8125 9.25 C9.57970915 14.52255963 12.86949231 18.7350675 17 23 C16.34 23.66 15.68 24.32 15 25 C10.37466743 20.3457591 6.81388591 15.35399193 3.5625 9.6875 C3.20865234 9.07696777 2.85480469 8.46643555 2.49023438 7.83740234 C0.90923372 5.011168 0 3.29064966 0 0 Z " fill="#4F4F4F" transform="translate(23,122)"/>
<path d="M0 0 C4.2564229 3.89158665 7.14687831 8.00243523 10 13 C10.42023438 13.71027344 10.84046875 14.42054687 11.2734375 15.15234375 C11.65757812 15.84457031 12.04171875 16.53679688 12.4375 17.25 C12.78683594 17.87390625 13.13617188 18.4978125 13.49609375 19.140625 C14 21 14 21 13.09765625 23.234375 C12.55431641 24.10835937 12.55431641 24.10835937 12 25 C10.22670069 22.34005104 9.31173429 20.27883659 8.25 17.3125 C6.51476156 12.81008207 4.30666628 9.43597315 1.171875 5.7890625 C0 4 0 4 0 0 Z " fill="#585858" transform="translate(149,45)"/>
<path d="M0 0 C0.99 0.33 1.98 0.66 3 1 C2.30132812 1.54398438 1.60265625 2.08796875 0.8828125 2.6484375 C-2.79791512 5.65087385 -6.24437575 8.86913461 -9.71484375 12.109375 C-12.0666325 14.28850078 -14.32507978 16.21671985 -17 18 C-16.02657389 11.07611428 -8.3936043 5.89399943 -3.125 1.875 C-2.09375 1.25625 -1.0625 0.6375 0 0 Z " fill="#3C3C3C" transform="translate(52,30)"/>
<path d="M0 0 C-2.721109 1.49612577 -5.44525434 2.98595401 -8.17578125 4.46484375 C-10.23185338 5.58245972 -12.27593197 6.72222564 -14.3125 7.875 C-17.38902918 9.16284942 -19.69662677 9.23595523 -23 9 C-23 8.34 -23 7.68 -23 7 C-21.33710937 6.38511719 -21.33710937 6.38511719 -19.640625 5.7578125 C-18.17703971 5.21365899 -16.71350045 4.66938165 -15.25 4.125 C-14.52039063 3.85558594 -13.79078125 3.58617187 -13.0390625 3.30859375 C-8.76921331 1.72042071 -8.76921331 1.72042071 -4.671875 -0.2578125 C-3 -1 -3 -1 0 0 Z " fill="#3F3F3F" transform="translate(133,158)"/>
<path d="M0 0 C0.66 0 1.32 0 2 0 C2.66 5.28 3.32 10.56 4 16 C1.64046906 13.64046906 1.50858587 12.22104383 1 9 C0.01 12.465 0.01 12.465 -1 16 C-1.33 16 -1.66 16 -2 16 C-2.2396943 10.36718401 -1.38529821 5.45461169 0 0 Z " fill="#A1A1A1" transform="translate(68,77)"/>
<path d="M0 0 C-3.47035825 2.14517925 -6.04785878 2.17412457 -10.078125 1.9765625 C-11.81835938 1.89921875 -11.81835938 1.89921875 -13.59375 1.8203125 C-14.8003125 1.75585938 -16.006875 1.69140625 -17.25 1.625 C-19.08304688 1.53992188 -19.08304688 1.53992188 -20.953125 1.453125 C-23.9693502 1.31173944 -26.9847323 1.16033265 -30 1 C-30 0.67 -30 0.34 -30 0 C-26.12545823 -0.1979005 -22.2503638 -0.3814709 -18.375 -0.5625 C-17.28058594 -0.61857422 -16.18617187 -0.67464844 -15.05859375 -0.73242188 C-13.99511719 -0.78076172 -12.93164062 -0.82910156 -11.8359375 -0.87890625 C-10.86188965 -0.9260376 -9.8878418 -0.97316895 -8.88427734 -1.02172852 C-5.82500193 -0.99868166 -3.0000999 -0.57784025 0 0 Z " fill="#707070" transform="translate(112,167)"/>
<path d="M0 0 C3.90829085 0.5647301 5.89920223 2.42131971 8.75 5.0625 C9.54921875 5.79597656 10.3484375 6.52945313 11.171875 7.28515625 C11.77515625 7.85105469 12.3784375 8.41695312 13 9 C12.67 9.99 12.34 10.98 12 12 C9.99698881 10.19073245 7.99751914 8.377813 6 6.5625 C5.42765625 6.04623047 4.8553125 5.52996094 4.265625 4.99804688 C2.82480421 3.6858708 1.41014216 2.34509096 0 1 C0 0.67 0 0.34 0 0 Z " fill="#353535" transform="translate(136,35)"/>
<path d="M0 0 C0.33 0.99 0.66 1.98 1 3 C-0.65234375 5.91796875 -0.65234375 5.91796875 -2.9375 9.1875 C-3.32357422 9.74630859 -3.70964844 10.30511719 -4.10742188 10.88085938 C-5.06242753 12.26031198 -6.03004093 13.63102056 -7 15 C-7.33 14.01 -7.66 13.02 -8 12 C-6.6015625 9.3359375 -6.6015625 9.3359375 -4.625 6.375 C-3.97789063 5.39273438 -3.33078125 4.41046875 -2.6640625 3.3984375 C-1 1 -1 1 0 0 Z " fill="#4C4C4C" transform="translate(34,46)"/>
<path d="M0 0 C1.1171875 1.640625 1.1171875 1.640625 2 4 C1.3203125 6.796875 1.3203125 6.796875 0.125 9.75 C-0.26429688 10.73484375 -0.65359375 11.7196875 -1.0546875 12.734375 C-1.36664063 13.48203125 -1.67859375 14.2296875 -2 15 C-2.99 14.67 -3.98 14.34 -5 14 C-4.731875 13.360625 -4.46375 12.72125 -4.1875 12.0625 C-2.64635858 8.08797739 -1.32390688 4.05115505 0 0 Z " fill="#5B5B5B" transform="translate(162,115)"/>
<path d="M0 0 C4.99911924 0.47610659 7.97832683 2.03162219 12 5 C11.01 5.66 10.02 6.32 9 7 C7.4972763 6.02501855 5.99788037 5.04490611 4.5 4.0625 C3.6646875 3.51722656 2.829375 2.97195312 1.96875 2.41015625 C1.3190625 1.94480469 0.669375 1.47945312 0 1 C0 0.67 0 0.34 0 0 Z " fill="#424242" transform="translate(126,29)"/>
<path d="M0 0 C3.63 0.33 7.26 0.66 11 1 C8 3 8 3 4.9375 2.75 C2 2 2 2 0 0 Z " fill="#4B4B4B" transform="translate(64,164)"/>
<path d="M0 0 C0.86625 0.3403125 0.86625 0.3403125 1.75 0.6875 C0.574375 1.2753125 0.574375 1.2753125 -0.625 1.875 C-3.60156418 3.93024669 -4.23823563 5.28429258 -5.25 8.6875 C-5.58 8.6875 -5.91 8.6875 -6.25 8.6875 C-6.5 5.875 -6.5 5.875 -6.25 2.6875 C-4.12558468 0.33546876 -3.18427034 -0.44225977 0 0 Z " fill="#555555" transform="translate(69.25,121.3125)"/>
</svg>
